<?xml version="1.0" standalone="no"?>
<!DOCTYPE svg PUBLIC "-//W3C//DTD SVG 20010904//EN"
 "http://www.w3.org/TR/2001/REC-SVG-20010904/DTD/svg10.dtd">
<svg version="1.0" xmlns="http://www.w3.org/2000/svg"
 width="1000.000000pt" height="388.000000pt" viewBox="0 0 1000.000000 388.000000"
 preserveAspectRatio="xMidYMid meet">

<g transform="translate(0.000000,388.000000) scale(0.100000,-0.100000)"
fill="#000000" stroke="none">
<path d="M6770 2970 l0 -60 495 0 495 0 0 -70 0 -70 140 0 140 0 0 130 0 130
-635 0 -635 0 0 -60z"/>
<path d="M2826 2803 c50 -83 68 -152 67 -258 0 -91 -3 -103 -56 -230 -52 -122
-132 -180 -270 -195 -49 -5 -59 -8 -31 -9 55 -1 183 -35 234 -61 l42 -22 57
22 c112 41 207 136 236 232 22 74 20 212 -4 289 -35 112 -112 200 -226 256
-85 43 -88 41 -49 -24z"/>
<path d="M4707 2766 c-76 -17 -135 -59 -166 -121 -22 -41 -26 -63 -26 -131 0
-45 3 -85 6 -88 3 -3 28 16 55 42 38 37 64 52 110 65 166 47 334 -2 541 -158
9 -7 37 14 108 85 105 105 104 97 23 156 l-49 37 -33 -33 -34 -32 -63 47
c-158 116 -328 164 -472 131z"/>
<path d="M1990 2511 l0 -261 115 0 115 0 0 195 0 195 175 0 c173 0 176 0 165
20 -6 11 -28 32 -49 46 -70 46 -122 56 -328 61 l-193 6 0 -262z"/>
<path d="M6770 2365 l0 -285 370 0 370 0 0 -70 0 -70 145 0 145 0 0 130 0 130
-375 0 -375 0 0 225 0 225 -140 0 -140 0 0 -285z"/>
<path d="M4221 2275 c-1 -154 33 -249 128 -348 93 -98 172 -145 476 -282 176
-80 210 -100 254 -150 18 -20 35 -35 38 -32 12 13 15 136 3 173 -18 56 -56
109 -101 138 -21 14 -136 71 -255 125 -359 166 -438 231 -532 441 -9 21 -11
10 -11 -65z"/>
<path d="M1990 1675 l0 -315 115 0 115 0 0 250 0 250 232 0 231 0 -23 25 c-40
42 -137 84 -220 95 -41 5 -159 10 -262 10 l-188 0 0 -315z"/>
<path d="M2961 1893 c53 -85 72 -168 66 -296 -6 -137 -31 -214 -96 -300 -57
-76 -133 -128 -236 -164 l-80 -28 -337 -3 -338 -3 0 -65 0 -65 448 4 c481 4
483 4 606 60 31 15 83 51 115 82 95 90 136 185 147 337 12 156 -28 279 -121
373 -45 44 -163 115 -194 115 -6 0 3 -21 20 -47z"/>
<path d="M6770 1530 l0 -290 495 0 495 0 0 -70 0 -70 140 0 140 0 0 130 0 130
-495 0 -495 0 0 230 0 230 -140 0 -140 0 0 -290z"/>
<path d="M5398 1372 c-38 -128 -156 -238 -307 -286 -123 -39 -223 -49 -420
-43 -183 6 -297 24 -415 66 -33 11 -61 20 -62 18 -1 -1 -8 -49 -15 -105 -14
-121 -22 -109 96 -146 121 -38 235 -56 391 -63 366 -15 607 77 703 269 40 78
52 146 49 257 l-3 91 -17 -58z"/>
</g>
</svg>
